<svg xmlns="http://www.w3.org/2000/svg" viewBox="0 0 796 164" width="796" height="164" role="img" aria-label="2022: 0 commit contributions"><text x="42" y="17" font-size="15" font-weight="600" font-family="Arial,sans-serif" fill="#24292f">2022: 0 commit contributions</text><text x="42" y="31" font-size="11" font-family="Arial,sans-serif" fill="#57606a">Jan</text><text x="112" y="31" font-size="11" font-family="Arial,sans-serif" fill="#57606a">Feb</text><text x="168" y="31" font-size="11" font-family="Arial,sans-serif" fill="#57606a">Mar</text><text x="224" y="31" font-size="11" font-family="Arial,sans-serif" fill="#57606a">Apr</text><text x="294" y="31" font-size="11" font-family="Arial,sans-serif" fill="#57606a">May</text><text x="350" y="31" font-size="11" font-family="Arial,sans-serif" fill="#57606a">Jun</text><text x="406" y="31" font-size="11" font-family="Arial,sans-serif" fill="#57606a">Jul</text><text x="476" y="31" font-size="11" font-family="Arial,sans-serif" fill="#57606a">Aug</text><text x="532" y="31" font-size="11" font-family="Arial,sans-serif" fill="#57606a">Sep</text><text x="588" y="31" font-size="11" font-family="Arial,sans-serif" fill="#57606a">Oct</text><text x="658" y="31" font-size="11" font-family="Arial,sans-serif" fill="#57606a">Nov</text><text x="714" y="31" font-size="11" font-family="Arial,sans-serif" fill="#57606a">Dec</text><text x="6" y="62" font-size="10" font-family="Arial,sans-serif" fill="#57606a">Mon</text><text x="6" y="90" font-size="10" font-family="Arial,sans-serif" fill="#57606a">Wed</text><text x="6" y="118" font-size="10" font-family="Arial,sans-serif" fill="#57606a">Fri</text><rect x="42" y="123" width="11" height="11" rx="2" fill="#ebedf0"><title>2022-01-01: 0 commits</title></rect><rect x="56" y="39" width="11" height="11" rx="2" fill="#ebedf0"><title>2022-01-02: 0 commits</title></rect><rect x="56" y="53" width="11" height="11" rx="2" fill="#ebedf0"><title>2022-01-03: 0 commits</title></rect><rect x="56" y="67" width="11" height="11" rx="2" fill="#ebedf0"><title>2022-01-04: 0 commits</title></rect><rect x="56" y="81" width="11" height="11" rx="2" fill="#ebedf0"><title>2022-01-05: 0 commits</title></rect><rect x="56" y="95" width="11" height="11" rx="2" fill="#ebedf0"><title>2022-01-06: 0 commits</title></rect><rect x="56" y="109" width="11" height="11" rx="2" fill="#ebedf0"><title>2022-01-07: 0 commits</title></rect><rect x="56" y="123" width="11" height="11" rx="2" fill="#ebedf0"><title>2022-01-08: 0 commits</title></rect><rect x="70" y="39" width="11" height="11" rx="2" fill="#ebedf0"><title>2022-01-09: 0 commits</title></rect><rect x="70" y="53" width="11" height="11" rx="2" fill="#ebedf0"><title>2022-01-10: 0 commits</title></rect><rect x="70" y="67" width="11" height="11" rx="2" fill="#ebedf0"><title>2022-01-11: 0 commits</title></rect><rect x="70" y="81" width="11" height="11" rx="2" fill="#ebedf0"><title>2022-01-12: 0 commits</title></rect><rect x="70" y="95" width="11" height="11" rx="2" fill="#ebedf0"><title>2022-01-13: 0 commits</title></rect><rect x="70" y="109" width="11" height="11" rx="2" fill="#ebedf0"><title>2022-01-14: 0 commits</title></rect><rect x="70" y="123" width="11" height="11" rx="2" fill="#ebedf0"><title>2022-01-15: 0 commits</title></rect><rect x="84" y="39" width="11" height="11" rx="2" fill="#ebedf0"><title>2022-01-16: 0 commits</title></rect><rect x="84" y="53" width="11" height="11" rx="2" fill="#ebedf0"><title>2022-01-17: 0 commits</title></rect><rect x="84" y="67" width="11" height="11" rx="2" fill="#ebedf0"><title>2022-01-18: 0 commits</title></rect><rect x="84" y="81" width="11" height="11" rx="2" fill="#ebedf0"><title>2022-01-19: 0 commits</title></rect><rect x="84" y="95" width="11" height="11" rx="2" fill="#ebedf0"><title>2022-01-20: 0 commits</title></rect><rect x="84" y="109" width="11" height="11" rx="2" fill="#ebedf0"><title>2022-01-21: 0 commits</title></rect><rect x="84" y="123" width="11" height="11" rx="2" fill="#ebedf0"><title>2022-01-22: 0 commits</title></rect><rect x="98" y="39" width="11" height="11" rx="2" fill="#ebedf0"><title>2022-01-23: 0 commits</title></rect><rect x="98" y="53" width="11" height="11" rx="2" fill="#ebedf0"><title>2022-01-24: 0 commits</title></rect><rect x="98" y="67" width="11" height="11" rx="2" fill="#ebedf0"><title>2022-01-25: 0 commits</title></rect><rect x="98" y="81" width="11" height="11" rx="2" fill="#ebedf0"><title>2022-01-26: 0 commits</title></rect><rect x="98" y="95" width="11" height="11" rx="2" fill="#ebedf0"><title>2022-01-27: 0 commits</title></rect><rect x="98" y="109" width="11" height="11" rx="2" fill="#ebedf0"><title>2022-01-28: 0 commits</title></rect><rect x="98" y="123" width="11" height="11" rx="2" fill="#ebedf0"><title>2022-01-29: 0 commits</title></rect><rect x="112" y="39" width="11" height="11" rx="2" fill="#ebedf0"><title>2022-01-30: 0 commits</title></rect><rect x="112" y="53" width="11" height="11" rx="2" fill="#ebedf0"><title>2022-01-31: 0 commits</title></rect><rect x="112" y="67" width="11" height="11" rx="2" fill="#ebedf0"><title>2022-02-01: 0 commits</title></rect><rect x="112" y="81" width="11" height="11" rx="2" fill="#ebedf0"><title>2022-02-02: 0 commits</title></rect><rect x="112" y="95" width="11" height="11" rx="2" fill="#ebedf0"><title>2022-02-03: 0 commits</title></rect><rect x="112" y="109" width="11" height="11" rx="2" fill="#ebedf0"><title>2022-02-04: 0 commits</title></rect><rect x="112" y="123" width="11" height="11" rx="2" fill="#ebedf0"><title>2022-02-05: 0 commits</title></rect><rect x="126" y="39" width="11" height="11" rx="2" fill="#ebedf0"><title>2022-02-06: 0 commits</title></rect><rect x="126" y="53" width="11" height="11" rx="2" fill="#ebedf0"><title>2022-02-07: 0 commits</title></rect><rect x="126" y="67" width="11" height="11" rx="2" fill="#ebedf0"><title>2022-02-08: 0 commits</title></rect><rect x="126" y="81" width="11" height="11" rx="2" fill="#ebedf0"><title>2022-02-09: 0 commits</title></rect><rect x="126" y="95" width="11" height="11" rx="2" fill="#ebedf0"><title>2022-02-10: 0 commits</title></rect><rect x="126" y="109" width="11" height="11" rx="2" fill="#ebedf0"><title>2022-02-11: 0 commits</title></rect><rect x="126" y="123" width="11" height="11" rx="2" fill="#ebedf0"><title>2022-02-12: 0 commits</title></rect><rect x="140" y="39" width="11" height="11" rx="2" fill="#ebedf0"><title>2022-02-13: 0 commits</title></rect><rect x="140" y="53" width="11" height="11" rx="2" fill="#ebedf0"><title>2022-02-14: 0 commits</title></rect><rect x="140" y="67" width="11" height="11" rx="2" fill="#ebedf0"><title>2022-02-15: 0 commits</title></rect><rect x="140" y="81" width="11" height="11" rx="2" fill="#ebedf0"><title>2022-02-16: 0 commits</title></rect><rect x="140" y="95" width="11" height="11" rx="2" fill="#ebedf0"><title>2022-02-17: 0 commits</title></rect><rect x="140" y="109" width="11" height="11" rx="2" fill="#ebedf0"><title>2022-02-18: 0 commits</title></rect><rect x="140" y="123" width="11" height="11" rx="2" fill="#ebedf0"><title>2022-02-19: 0 commits</title></rect><rect x="154" y="39" width="11" height="11" rx="2" fill="#ebedf0"><title>2022-02-20: 0 commits</title></rect><rect x="154" y="53" width="11" height="11" rx="2" fill="#ebedf0"><title>2022-02-21: 0 commits</title></rect><rect x="154" y="67" width="11" height="11" rx="2" fill="#ebedf0"><title>2022-02-22: 0 commits</title></rect><rect x="154" y="81" width="11" height="11" rx="2" fill="#ebedf0"><title>2022-02-23: 0 commits</title></rect><rect x="154" y="95" width="11" height="11" rx="2" fill="#ebedf0"><title>2022-02-24: 0 commits</title></rect><rect x="154" y="109" width="11" height="11" rx="2" fill="#ebedf0"><title>2022-02-25: 0 commits</title></rect><rect x="154" y="123" width="11" height="11" rx="2" fill="#ebedf0"><title>2022-02-26: 0 commits</title></rect><rect x="168" y="39" width="11" height="11" rx="2" fill="#ebedf0"><title>2022-02-27: 0 commits</title></rect><rect x="168" y="53" width="11" height="11" rx="2" fill="#ebedf0"><title>2022-02-28: 0 commits</title></rect><rect x="168" y="67" width="11" height="11" rx="2" fill="#ebedf0"><title>2022-03-01: 0 commits</title></rect><rect x="168" y="81" width="11" height="11" rx="2" fill="#ebedf0"><title>2022-03-02: 0 commits</title></rect><rect x="168" y="95" width="11" height="11" rx="2" fill="#ebedf0"><title>2022-03-03: 0 commits</title></rect><rect x="168" y="109" width="11" height="11" rx="2" fill="#ebedf0"><title>2022-03-04: 0 commits</title></rect><rect x="168" y="123" width="11" height="11" rx="2" fill="#ebedf0"><title>2022-03-05: 0 commits</title></rect><rect x="182" y="39" width="11" height="11" rx="2" fill="#ebedf0"><title>2022-03-06: 0 commits</title></rect><rect x="182" y="53" width="11" height="11" rx="2" fill="#ebedf0"><title>2022-03-07: 0 commits</title></rect><rect x="182" y="67" width="11" height="11" rx="2" fill="#ebedf0"><title>2022-03-08: 0 commits</title></rect><rect x="182" y="81" width="11" height="11" rx="2" fill="#ebedf0"><title>2022-03-09: 0 commits</title></rect><rect x="182" y="95" width="11" height="11" rx="2" fill="#ebedf0"><title>2022-03-10: 0 commits</title></rect><rect x="182" y="109" width="11" height="11" rx="2" fill="#ebedf0"><title>2022-03-11: 0 commits</title></rect><rect x="182" y="123" width="11" height="11" rx="2" fill="#ebedf0"><title>2022-03-12: 0 commits</title></rect><rect x="196" y="39" width="11" height="11" rx="2" fill="#ebedf0"><title>2022-03-13: 0 commits</title></rect><rect x="196" y="53" width="11" height="11" rx="2" fill="#ebedf0"><title>2022-03-14: 0 commits</title></rect><rect x="196" y="67" width="11" height="11" rx="2" fill="#ebedf0"><title>2022-03-15: 0 commits</title></rect><rect x="196" y="81" width="11" height="11" rx="2" fill="#ebedf0"><title>2022-03-16: 0 commits</title></rect><rect x="196" y="95" width="11" height="11" rx="2" fill="#ebedf0"><title>2022-03-17: 0 commits</title></rect><rect x="196" y="109" width="11" height="11" rx="2" fill="#ebedf0"><title>2022-03-18: 0 commits</title></rect><rect x="196" y="123" width="11" height="11" rx="2" fill="#ebedf0"><title>2022-03-19: 0 commits</title></rect><rect x="210" y="39" width="11" height="11" rx="2" fill="#ebedf0"><title>2022-03-20: 0 commits</title></rect><rect x="210" y="53" width="11" height="11" rx="2" fill="#ebedf0"><title>2022-03-21: 0 commits</title></rect><rect x="210" y="67" width="11" height="11" rx="2" fill="#ebedf0"><title>2022-03-22: 0 commits</title></rect><rect x="210" y="81" width="11" height="11" rx="2" fill="#ebedf0"><title>2022-03-23: 0 commits</title></rect><rect x="210" y="95" width="11" height="11" rx="2" fill="#ebedf0"><title>2022-03-24: 0 commits</title></rect><rect x="210" y="109" width="11" height="11" rx="2" fill="#ebedf0"><title>2022-03-25: 0 commits</title></rect><rect x="210" y="123" width="11" height="11" rx="2" fill="#ebedf0"><title>2022-03-26: 0 commits</title></rect><rect x="224" y="39" width="11" height="11" rx="2" fill="#ebedf0"><title>2022-03-27: 0 commits</title></rect><rect x="224" y="53" width="11" height="11" rx="2" fill="#ebedf0"><title>2022-03-28: 0 commits</title></rect><rect x="224" y="67" width="11" height="11" rx="2" fill="#ebedf0"><title>2022-03-29: 0 commits</title></rect><rect x="224" y="81" width="11" height="11" rx="2" fill="#ebedf0"><title>2022-03-30: 0 commits</title></rect><rect x="224" y="95" width="11" height="11" rx="2" fill="#ebedf0"><title>2022-03-31: 0 commits</title></rect><rect x="224" y="109" width="11" height="11" rx="2" fill="#ebedf0"><title>2022-04-01: 0 commits</title></rect><rect x="224" y="123" width="11" height="11" rx="2" fill="#ebedf0"><title>2022-04-02: 0 commits</title></rect><rect x="238" y="39" width="11" height="11" rx="2" fill="#ebedf0"><title>2022-04-03: 0 commits</title></rect><rect x="238" y="53" width="11" height="11" rx="2" fill="#ebedf0"><title>2022-04-04: 0 commits</title></rect><rect x="238" y="67" width="11" height="11" rx="2" fill="#ebedf0"><title>2022-04-05: 0 commits</title></rect><rect x="238" y="81" width="11" height="11" rx="2" fill="#ebedf0"><title>2022-04-06: 0 commits</title></rect><rect x="238" y="95" width="11" height="11" rx="2" fill="#ebedf0"><title>2022-04-07: 0 commits</title></rect><rect x="238" y="109" width="11" height="11" rx="2" fill="#ebedf0"><title>2022-04-08: 0 commits</title></rect><rect x="238" y="123" width="11" height="11" rx="2" fill="#ebedf0"><title>2022-04-09: 0 commits</title></rect><rect x="252" y="39" width="11" height="11" rx="2" fill="#ebedf0"><title>2022-04-10: 0 commits</title></rect><rect x="252" y="53" width="11" height="11" rx="2" fill="#ebedf0"><title>2022-04-11: 0 commits</title></rect><rect x="252" y="67" width="11" height="11" rx="2" fill="#ebedf0"><title>2022-04-12: 0 commits</title></rect><rect x="252" y="81" width="11" height="11" rx="2" fill="#ebedf0"><title>2022-04-13: 0 commits</title></rect><rect x="252" y="95" width="11" height="11" rx="2" fill="#ebedf0"><title>2022-04-14: 0 commits</title></rect><rect x="252" y="109" width="11" height="11" rx="2" fill="#ebedf0"><title>2022-04-15: 0 commits</title></rect><rect x="252" y="123" width="11" height="11" rx="2" fill="#ebedf0"><title>2022-04-16: 0 commits</title></rect><rect x="266" y="39" width="11" height="11" rx="2" fill="#ebedf0"><title>2022-04-17: 0 commits</title></rect><rect x="266" y="53" width="11" height="11" rx="2" fill="#ebedf0"><title>2022-04-18: 0 commits</title></rect><rect x="266" y="67" width="11" height="11" rx="2" fill="#ebedf0"><title>2022-04-19: 0 commits</title></rect><rect x="266" y="81" width="11" height="11" rx="2" fill="#ebedf0"><title>2022-04-20: 0 commits</title></rect><rect x="266" y="95" width="11" height="11" rx="2" fill="#ebedf0"><title>2022-04-21: 0 commits</title></rect><rect x="266" y="109" width="11" height="11" rx="2" fill="#ebedf0"><title>2022-04-22: 0 commits</title></rect><rect x="266" y="123" width="11" height="11" rx="2" fill="#ebedf0"><title>2022-04-23: 0 commits</title></rect><rect x="280" y="39" width="11" height="11" rx="2" fill="#ebedf0"><title>2022-04-24: 0 commits</title></rect><rect x="280" y="53" width="11" height="11" rx="2" fill="#ebedf0"><title>2022-04-25: 0 commits</title></rect><rect x="280" y="67" width="11" height="11" rx="2" fill="#ebedf0"><title>2022-04-26: 0 commits</title></rect><rect x="280" y="81" width="11" height="11" rx="2" fill="#ebedf0"><title>2022-04-27: 0 commits</title></rect><rect x="280" y="95" width="11" height="11" rx="2" fill="#ebedf0"><title>2022-04-28: 0 commits</title></rect><rect x="280" y="109" width="11" height="11" rx="2" fill="#ebedf0"><title>2022-04-29: 0 commits</title></rect><rect x="280" y="123" width="11" height="11" rx="2" fill="#ebedf0"><title>2022-04-30: 0 commits</title></rect><rect x="294" y="39" width="11" height="11" rx="2" fill="#ebedf0"><title>2022-05-01: 0 commits</title></rect><rect x="294" y="53" width="11" height="11" rx="2" fill="#ebedf0"><title>2022-05-02: 0 commits</title></rect><rect x="294" y="67" width="11" height="11" rx="2" fill="#ebedf0"><title>2022-05-03: 0 commits</title></rect><rect x="294" y="81" width="11" height="11" rx="2" fill="#ebedf0"><title>2022-05-04: 0 commits</title></rect><rect x="294" y="95" width="11" height="11" rx="2" fill="#ebedf0"><title>2022-05-05: 0 commits</title></rect><rect x="294" y="109" width="11" height="11" rx="2" fill="#ebedf0"><title>2022-05-06: 0 commits</title></rect><rect x="294" y="123" width="11" height="11" rx="2" fill="#ebedf0"><title>2022-05-07: 0 commits</title></rect><rect x="308" y="39" width="11" height="11" rx="2" fill="#ebedf0"><title>2022-05-08: 0 commits</title></rect><rect x="308" y="53" width="11" height="11" rx="2" fill="#ebedf0"><title>2022-05-09: 0 commits</title></rect><rect x="308" y="67" width="11" height="11" rx="2" fill="#ebedf0"><title>2022-05-10: 0 commits</title></rect><rect x="308" y="81" width="11" height="11" rx="2" fill="#ebedf0"><title>2022-05-11: 0 commits</title></rect><rect x="308" y="95" width="11" height="11" rx="2" fill="#ebedf0"><title>2022-05-12: 0 commits</title></rect><rect x="308" y="109" width="11" height="11" rx="2" fill="#ebedf0"><title>2022-05-13: 0 commits</title></rect><rect x="308" y="123" width="11" height="11" rx="2" fill="#ebedf0"><title>2022-05-14: 0 commits</title></rect><rect x="322" y="39" width="11" height="11" rx="2" fill="#ebedf0"><title>2022-05-15: 0 commits</title></rect><rect x="322" y="53" width="11" height="11" rx="2" fill="#ebedf0"><title>2022-05-16: 0 commits</title></rect><rect x="322" y="67" width="11" height="11" rx="2" fill="#ebedf0"><title>2022-05-17: 0 commits</title></rect><rect x="322" y="81" width="11" height="11" rx="2" fill="#ebedf0"><title>2022-05-18: 0 commits</title></rect><rect x="322" y="95" width="11" height="11" rx="2" fill="#ebedf0"><title>2022-05-19: 0 commits</title></rect><rect x="322" y="109" width="11" height="11" rx="2" fill="#ebedf0"><title>2022-05-20: 0 commits</title></rect><rect x="322" y="123" width="11" height="11" rx="2" fill="#ebedf0"><title>2022-05-21: 0 commits</title></rect><rect x="336" y="39" width="11" height="11" rx="2" fill="#ebedf0"><title>2022-05-22: 0 commits</title></rect><rect x="336" y="53" width="11" height="11" rx="2" fill="#ebedf0"><title>2022-05-23: 0 commits</title></rect><rect x="336" y="67" width="11" height="11" rx="2" fill="#ebedf0"><title>2022-05-24: 0 commits</title></rect><rect x="336" y="81" width="11" height="11" rx="2" fill="#ebedf0"><title>2022-05-25: 0 commits</title></rect><rect x="336" y="95" width="11" height="11" rx="2" fill="#ebedf0"><title>2022-05-26: 0 commits</title></rect><rect x="336" y="109" width="11" height="11" rx="2" fill="#ebedf0"><title>2022-05-27: 0 commits</title></rect><rect x="336" y="123" width="11" height="11" rx="2" fill="#ebedf0"><title>2022-05-28: 0 commits</title></rect><rect x="350" y="39" width="11" height="11" rx="2" fill="#ebedf0"><title>2022-05-29: 0 commits</title></rect><rect x="350" y="53" width="11" height="11" rx="2" fill="#ebedf0"><title>2022-05-30: 0 commits</title></rect><rect x="350" y="67" width="11" height="11" rx="2" fill="#ebedf0"><title>2022-05-31: 0 commits</title></rect><rect x="350" y="81" width="11" height="11" rx="2" fill="#ebedf0"><title>2022-06-01: 0 commits</title></rect><rect x="350" y="95" width="11" height="11" rx="2" fill="#ebedf0"><title>2022-06-02: 0 commits</title></rect><rect x="350" y="109" width="11" height="11" rx="2" fill="#ebedf0"><title>2022-06-03: 0 commits</title></rect><rect x="350" y="123" width="11" height="11" rx="2" fill="#ebedf0"><title>2022-06-04: 0 commits</title></rect><rect x="364" y="39" width="11" height="11" rx="2" fill="#ebedf0"><title>2022-06-05: 0 commits</title></rect><rect x="364" y="53" width="11" height="11" rx="2" fill="#ebedf0"><title>2022-06-06: 0 commits</title></rect><rect x="364" y="67" width="11" height="11" rx="2" fill="#ebedf0"><title>2022-06-07: 0 commits</title></rect><rect x="364" y="81" width="11" height="11" rx="2" fill="#ebedf0"><title>2022-06-08: 0 commits</title></rect><rect x="364" y="95" width="11" height="11" rx="2" fill="#ebedf0"><title>2022-06-09: 0 commits</title></rect><rect x="364" y="109" width="11" height="11" rx="2" fill="#ebedf0"><title>2022-06-10: 0 commits</title></rect><rect x="364" y="123" width="11" height="11" rx="2" fill="#ebedf0"><title>2022-06-11: 0 commits</title></rect><rect x="378" y="39" width="11" height="11" rx="2" fill="#ebedf0"><title>2022-06-12: 0 commits</title></rect><rect x="378" y="53" width="11" height="11" rx="2" fill="#ebedf0"><title>2022-06-13: 0 commits</title></rect><rect x="378" y="67" width="11" height="11" rx="2" fill="#ebedf0"><title>2022-06-14: 0 commits</title></rect><rect x="378" y="81" width="11" height="11" rx="2" fill="#ebedf0"><title>2022-06-15: 0 commits</title></rect><rect x="378" y="95" width="11" height="11" rx="2" fill="#ebedf0"><title>2022-06-16: 0 commits</title></rect><rect x="378" y="109" width="11" height="11" rx="2" fill="#ebedf0"><title>2022-06-17: 0 commits</title></rect><rect x="378" y="123" width="11" height="11" rx="2" fill="#ebedf0"><title>2022-06-18: 0 commits</title></rect><rect x="392" y="39" width="11" height="11" rx="2" fill="#ebedf0"><title>2022-06-19: 0 commits</title></rect><rect x="392" y="53" width="11" height="11" rx="2" fill="#ebedf0"><title>2022-06-20: 0 commits</title></rect><rect x="392" y="67" width="11" height="11" rx="2" fill="#ebedf0"><title>2022-06-21: 0 commits</title></rect><rect x="392" y="81" width="11" height="11" rx="2" fill="#ebedf0"><title>2022-06-22: 0 commits</title></rect><rect x="392" y="95" width="11" height="11" rx="2" fill="#ebedf0"><title>2022-06-23: 0 commits</title></rect><rect x="392" y="109" width="11" height="11" rx="2" fill="#ebedf0"><title>2022-06-24: 0 commits</title></rect><rect x="392" y="123" width="11" height="11" rx="2" fill="#ebedf0"><title>2022-06-25: 0 commits</title></rect><rect x="406" y="39" width="11" height="11" rx="2" fill="#ebedf0"><title>2022-06-26: 0 commits</title></rect><rect x="406" y="53" width="11" height="11" rx="2" fill="#ebedf0"><title>2022-06-27: 0 commits</title></rect><rect x="406" y="67" width="11" height="11" rx="2" fill="#ebedf0"><title>2022-06-28: 0 commits</title></rect><rect x="406" y="81" width="11" height="11" rx="2" fill="#ebedf0"><title>2022-06-29: 0 commits</title></rect><rect x="406" y="95" width="11" height="11" rx="2" fill="#ebedf0"><title>2022-06-30: 0 commits</title></rect><rect x="406" y="109" width="11" height="11" rx="2" fill="#ebedf0"><title>2022-07-01: 0 commits</title></rect><rect x="406" y="123" width="11" height="11" rx="2" fill="#ebedf0"><title>2022-07-02: 0 commits</title></rect><rect x="420" y="39" width="11" height="11" rx="2" fill="#ebedf0"><title>2022-07-03: 0 commits</title></rect><rect x="420" y="53" width="11" height="11" rx="2" fill="#ebedf0"><title>2022-07-04: 0 commits</title></rect><rect x="420" y="67" width="11" height="11" rx="2" fill="#ebedf0"><title>2022-07-05: 0 commits</title></rect><rect x="420" y="81" width="11" height="11" rx="2" fill="#ebedf0"><title>2022-07-06: 0 commits</title></rect><rect x="420" y="95" width="11" height="11" rx="2" fill="#ebedf0"><title>2022-07-07: 0 commits</title></rect><rect x="420" y="109" width="11" height="11" rx="2" fill="#ebedf0"><title>2022-07-08: 0 commits</title></rect><rect x="420" y="123" width="11" height="11" rx="2" fill="#ebedf0"><title>2022-07-09: 0 commits</title></rect><rect x="434" y="39" width="11" height="11" rx="2" fill="#ebedf0"><title>2022-07-10: 0 commits</title></rect><rect x="434" y="53" width="11" height="11" rx="2" fill="#ebedf0"><title>2022-07-11: 0 commits</title></rect><rect x="434" y="67" width="11" height="11" rx="2" fill="#ebedf0"><title>2022-07-12: 0 commits</title></rect><rect x="434" y="81" width="11" height="11" rx="2" fill="#ebedf0"><title>2022-07-13: 0 commits</title></rect><rect x="434" y="95" width="11" height="11" rx="2" fill="#ebedf0"><title>2022-07-14: 0 commits</title></rect><rect x="434" y="109" width="11" height="11" rx="2" fill="#ebedf0"><title>2022-07-15: 0 commits</title></rect><rect x="434" y="123" width="11" height="11" rx="2" fill="#ebedf0"><title>2022-07-16: 0 commits</title></rect><rect x="448" y="39" width="11" height="11" rx="2" fill="#ebedf0"><title>2022-07-17: 0 commits</title></rect><rect x="448" y="53" width="11" height="11" rx="2" fill="#ebedf0"><title>2022-07-18: 0 commits</title></rect><rect x="448" y="67" width="11" height="11" rx="2" fill="#ebedf0"><title>2022-07-19: 0 commits</title></rect><rect x="448" y="81" width="11" height="11" rx="2" fill="#ebedf0"><title>2022-07-20: 0 commits</title></rect><rect x="448" y="95" width="11" height="11" rx="2" fill="#ebedf0"><title>2022-07-21: 0 commits</title></rect><rect x="448" y="109" width="11" height="11" rx="2" fill="#ebedf0"><title>2022-07-22: 0 commits</title></rect><rect x="448" y="123" width="11" height="11" rx="2" fill="#ebedf0"><title>2022-07-23: 0 commits</title></rect><rect x="462" y="39" width="11" height="11" rx="2" fill="#ebedf0"><title>2022-07-24: 0 commits</title></rect><rect x="462" y="53" width="11" height="11" rx="2" fill="#ebedf0"><title>2022-07-25: 0 commits</title></rect><rect x="462" y="67" width="11" height="11" rx="2" fill="#ebedf0"><title>2022-07-26: 0 commits</title></rect><rect x="462" y="81" width="11" height="11" rx="2" fill="#ebedf0"><title>2022-07-27: 0 commits</title></rect><rect x="462" y="95" width="11" height="11" rx="2" fill="#ebedf0"><title>2022-07-28: 0 commits</title></rect><rect x="462" y="109" width="11" height="11" rx="2" fill="#ebedf0"><title>2022-07-29: 0 commits</title></rect><rect x="462" y="123" width="11" height="11" rx="2" fill="#ebedf0"><title>2022-07-30: 0 commits</title></rect><rect x="476" y="39" width="11" height="11" rx="2" fill="#ebedf0"><title>2022-07-31: 0 commits</title></rect><rect x="476" y="53" width="11" height="11" rx="2" fill="#ebedf0"><title>2022-08-01: 0 commits</title></rect><rect x="476" y="67" width="11" height="11" rx="2" fill="#ebedf0"><title>2022-08-02: 0 commits</title></rect><rect x="476" y="81" width="11" height="11" rx="2" fill="#ebedf0"><title>2022-08-03: 0 commits</title></rect><rect x="476" y="95" width="11" height="11" rx="2" fill="#ebedf0"><title>2022-08-04: 0 commits</title></rect><rect x="476" y="109" width="11" height="11" rx="2" fill="#ebedf0"><title>2022-08-05: 0 commits</title></rect><rect x="476" y="123" width="11" height="11" rx="2" fill="#ebedf0"><title>2022-08-06: 0 commits</title></rect><rect x="490" y="39" width="11" height="11" rx="2" fill="#ebedf0"><title>2022-08-07: 0 commits</title></rect><rect x="490" y="53" width="11" height="11" rx="2" fill="#ebedf0"><title>2022-08-08: 0 commits</title></rect><rect x="490" y="67" width="11" height="11" rx="2" fill="#ebedf0"><title>2022-08-09: 0 commits</title></rect><rect x="490" y="81" width="11" height="11" rx="2" fill="#ebedf0"><title>2022-08-10: 0 commits</title></rect><rect x="490" y="95" width="11" height="11" rx="2" fill="#ebedf0"><title>2022-08-11: 0 commits</title></rect><rect x="490" y="109" width="11" height="11" rx="2" fill="#ebedf0"><title>2022-08-12: 0 commits</title></rect><rect x="490" y="123" width="11" height="11" rx="2" fill="#ebedf0"><title>2022-08-13: 0 commits</title></rect><rect x="504" y="39" width="11" height="11" rx="2" fill="#ebedf0"><title>2022-08-14: 0 commits</title></rect><rect x="504" y="53" width="11" height="11" rx="2" fill="#ebedf0"><title>2022-08-15: 0 commits</title></rect><rect x="504" y="67" width="11" height="11" rx="2" fill="#ebedf0"><title>2022-08-16: 0 commits</title></rect><rect x="504" y="81" width="11" height="11" rx="2" fill="#ebedf0"><title>2022-08-17: 0 commits</title></rect><rect x="504" y="95" width="11" height="11" rx="2" fill="#ebedf0"><title>2022-08-18: 0 commits</title></rect><rect x="504" y="109" width="11" height="11" rx="2" fill="#ebedf0"><title>2022-08-19: 0 commits</title></rect><rect x="504" y="123" width="11" height="11" rx="2" fill="#ebedf0"><title>2022-08-20: 0 commits</title></rect><rect x="518" y="39" width="11" height="11" rx="2" fill="#ebedf0"><title>2022-08-21: 0 commits</title></rect><rect x="518" y="53" width="11" height="11" rx="2" fill="#ebedf0"><title>2022-08-22: 0 commits</title></rect><rect x="518" y="67" width="11" height="11" rx="2" fill="#ebedf0"><title>2022-08-23: 0 commits</title></rect><rect x="518" y="81" width="11" height="11" rx="2" fill="#ebedf0"><title>2022-08-24: 0 commits</title></rect><rect x="518" y="95" width="11" height="11" rx="2" fill="#ebedf0"><title>2022-08-25: 0 commits</title></rect><rect x="518" y="109" width="11" height="11" rx="2" fill="#ebedf0"><title>2022-08-26: 0 commits</title></rect><rect x="518" y="123" width="11" height="11" rx="2" fill="#ebedf0"><title>2022-08-27: 0 commits</title></rect><rect x="532" y="39" width="11" height="11" rx="2" fill="#ebedf0"><title>2022-08-28: 0 commits</title></rect><rect x="532" y="53" width="11" height="11" rx="2" fill="#ebedf0"><title>2022-08-29: 0 commits</title></rect><rect x="532" y="67" width="11" height="11" rx="2" fill="#ebedf0"><title>2022-08-30: 0 commits</title></rect><rect x="532" y="81" width="11" height="11" rx="2" fill="#ebedf0"><title>2022-08-31: 0 commits</title></rect><rect x="532" y="95" width="11" height="11" rx="2" fill="#ebedf0"><title>2022-09-01: 0 commits</title></rect><rect x="532" y="109" width="11" height="11" rx="2" fill="#ebedf0"><title>2022-09-02: 0 commits</title></rect><rect x="532" y="123" width="11" height="11" rx="2" fill="#ebedf0"><title>2022-09-03: 0 commits</title></rect><rect x="546" y="39" width="11" height="11" rx="2" fill="#ebedf0"><title>2022-09-04: 0 commits</title></rect><rect x="546" y="53" width="11" height="11" rx="2" fill="#ebedf0"><title>2022-09-05: 0 commits</title></rect><rect x="546" y="67" width="11" height="11" rx="2" fill="#ebedf0"><title>2022-09-06: 0 commits</title></rect><rect x="546" y="81" width="11" height="11" rx="2" fill="#ebedf0"><title>2022-09-07: 0 commits</title></rect><rect x="546" y="95" width="11" height="11" rx="2" fill="#ebedf0"><title>2022-09-08: 0 commits</title></rect><rect x="546" y="109" width="11" height="11" rx="2" fill="#ebedf0"><title>2022-09-09: 0 commits</title></rect><rect x="546" y="123" width="11" height="11" rx="2" fill="#ebedf0"><title>2022-09-10: 0 commits</title></rect><rect x="560" y="39" width="11" height="11" rx="2" fill="#ebedf0"><title>2022-09-11: 0 commits</title></rect><rect x="560" y="53" width="11" height="11" rx="2" fill="#ebedf0"><title>2022-09-12: 0 commits</title></rect><rect x="560" y="67" width="11" height="11" rx="2" fill="#ebedf0"><title>2022-09-13: 0 commits</title></rect><rect x="560" y="81" width="11" height="11" rx="2" fill="#ebedf0"><title>2022-09-14: 0 commits</title></rect><rect x="560" y="95" width="11" height="11" rx="2" fill="#ebedf0"><title>2022-09-15: 0 commits</title></rect><rect x="560" y="109" width="11" height="11" rx="2" fill="#ebedf0"><title>2022-09-16: 0 commits</title></rect><rect x="560" y="123" width="11" height="11" rx="2" fill="#ebedf0"><title>2022-09-17: 0 commits</title></rect><rect x="574" y="39" width="11" height="11" rx="2" fill="#ebedf0"><title>2022-09-18: 0 commits</title></rect><rect x="574" y="53" width="11" height="11" rx="2" fill="#ebedf0"><title>2022-09-19: 0 commits</title></rect><rect x="574" y="67" width="11" height="11" rx="2" fill="#ebedf0"><title>2022-09-20: 0 commits</title></rect><rect x="574" y="81" width="11" height="11" rx="2" fill="#ebedf0"><title>2022-09-21: 0 commits</title></rect><rect x="574" y="95" width="11" height="11" rx="2" fill="#ebedf0"><title>2022-09-22: 0 commits</title></rect><rect x="574" y="109" width="11" height="11" rx="2" fill="#ebedf0"><title>2022-09-23: 0 commits</title></rect><rect x="574" y="123" width="11" height="11" rx="2" fill="#ebedf0"><title>2022-09-24: 0 commits</title></rect><rect x="588" y="39" width="11" height="11" rx="2" fill="#ebedf0"><title>2022-09-25: 0 commits</title></rect><rect x="588" y="53" width="11" height="11" rx="2" fill="#ebedf0"><title>2022-09-26: 0 commits</title></rect><rect x="588" y="67" width="11" height="11" rx="2" fill="#ebedf0"><title>2022-09-27: 0 commits</title></rect><rect x="588" y="81" width="11" height="11" rx="2" fill="#ebedf0"><title>2022-09-28: 0 commits</title></rect><rect x="588" y="95" width="11" height="11" rx="2" fill="#ebedf0"><title>2022-09-29: 0 commits</title></rect><rect x="588" y="109" width="11" height="11" rx="2" fill="#ebedf0"><title>2022-09-30: 0 commits</title></rect><rect x="588" y="123" width="11" height="11" rx="2" fill="#ebedf0"><title>2022-10-01: 0 commits</title></rect><rect x="602" y="39" width="11" height="11" rx="2" fill="#ebedf0"><title>2022-10-02: 0 commits</title></rect><rect x="602" y="53" width="11" height="11" rx="2" fill="#ebedf0"><title>2022-10-03: 0 commits</title></rect><rect x="602" y="67" width="11" height="11" rx="2" fill="#ebedf0"><title>2022-10-04: 0 commits</title></rect><rect x="602" y="81" width="11" height="11" rx="2" fill="#ebedf0"><title>2022-10-05: 0 commits</title></rect><rect x="602" y="95" width="11" height="11" rx="2" fill="#ebedf0"><title>2022-10-06: 0 commits</title></rect><rect x="602" y="109" width="11" height="11" rx="2" fill="#ebedf0"><title>2022-10-07: 0 commits</title></rect><rect x="602" y="123" width="11" height="11" rx="2" fill="#ebedf0"><title>2022-10-08: 0 commits</title></rect><rect x="616" y="39" width="11" height="11" rx="2" fill="#ebedf0"><title>2022-10-09: 0 commits</title></rect><rect x="616" y="53" width="11" height="11" rx="2" fill="#ebedf0"><title>2022-10-10: 0 commits</title></rect><rect x="616" y="67" width="11" height="11" rx="2" fill="#ebedf0"><title>2022-10-11: 0 commits</title></rect><rect x="616" y="81" width="11" height="11" rx="2" fill="#ebedf0"><title>2022-10-12: 0 commits</title></rect><rect x="616" y="95" width="11" height="11" rx="2" fill="#ebedf0"><title>2022-10-13: 0 commits</title></rect><rect x="616" y="109" width="11" height="11" rx="2" fill="#ebedf0"><title>2022-10-14: 0 commits</title></rect><rect x="616" y="123" width="11" height="11" rx="2" fill="#ebedf0"><title>2022-10-15: 0 commits</title></rect><rect x="630" y="39" width="11" height="11" rx="2" fill="#ebedf0"><title>2022-10-16: 0 commits</title></rect><rect x="630" y="53" width="11" height="11" rx="2" fill="#ebedf0"><title>2022-10-17: 0 commits</title></rect><rect x="630" y="67" width="11" height="11" rx="2" fill="#ebedf0"><title>2022-10-18: 0 commits</title></rect><rect x="630" y="81" width="11" height="11" rx="2" fill="#ebedf0"><title>2022-10-19: 0 commits</title></rect><rect x="630" y="95" width="11" height="11" rx="2" fill="#ebedf0"><title>2022-10-20: 0 commits</title></rect><rect x="630" y="109" width="11" height="11" rx="2" fill="#ebedf0"><title>2022-10-21: 0 commits</title></rect><rect x="630" y="123" width="11" height="11" rx="2" fill="#ebedf0"><title>2022-10-22: 0 commits</title></rect><rect x="644" y="39" width="11" height="11" rx="2" fill="#ebedf0"><title>2022-10-23: 0 commits</title></rect><rect x="644" y="53" width="11" height="11" rx="2" fill="#ebedf0"><title>2022-10-24: 0 commits</title></rect><rect x="644" y="67" width="11" height="11" rx="2" fill="#ebedf0"><title>2022-10-25: 0 commits</title></rect><rect x="644" y="81" width="11" height="11" rx="2" fill="#ebedf0"><title>2022-10-26: 0 commits</title></rect><rect x="644" y="95" width="11" height="11" rx="2" fill="#ebedf0"><title>2022-10-27: 0 commits</title></rect><rect x="644" y="109" width="11" height="11" rx="2" fill="#ebedf0"><title>2022-10-28: 0 commits</title></rect><rect x="644" y="123" width="11" height="11" rx="2" fill="#ebedf0"><title>2022-10-29: 0 commits</title></rect><rect x="658" y="39" width="11" height="11" rx="2" fill="#ebedf0"><title>2022-10-30: 0 commits</title></rect><rect x="658" y="53" width="11" height="11" rx="2" fill="#ebedf0"><title>2022-10-31: 0 commits</title></rect><rect x="658" y="67" width="11" height="11" rx="2" fill="#ebedf0"><title>2022-11-01: 0 commits</title></rect><rect x="658" y="81" width="11" height="11" rx="2" fill="#ebedf0"><title>2022-11-02: 0 commits</title></rect><rect x="658" y="95" width="11" height="11" rx="2" fill="#ebedf0"><title>2022-11-03: 0 commits</title></rect><rect x="658" y="109" width="11" height="11" rx="2" fill="#ebedf0"><title>2022-11-04: 0 commits</title></rect><rect x="658" y="123" width="11" height="11" rx="2" fill="#ebedf0"><title>2022-11-05: 0 commits</title></rect><rect x="672" y="39" width="11" height="11" rx="2" fill="#ebedf0"><title>2022-11-06: 0 commits</title></rect><rect x="672" y="53" width="11" height="11" rx="2" fill="#ebedf0"><title>2022-11-07: 0 commits</title></rect><rect x="672" y="67" width="11" height="11" rx="2" fill="#ebedf0"><title>2022-11-08: 0 commits</title></rect><rect x="672" y="81" width="11" height="11" rx="2" fill="#ebedf0"><title>2022-11-09: 0 commits</title></rect><rect x="672" y="95" width="11" height="11" rx="2" fill="#ebedf0"><title>2022-11-10: 0 commits</title></rect><rect x="672" y="109" width="11" height="11" rx="2" fill="#ebedf0"><title>2022-11-11: 0 commits</title></rect><rect x="672" y="123" width="11" height="11" rx="2" fill="#ebedf0"><title>2022-11-12: 0 commits</title></rect><rect x="686" y="39" width="11" height="11" rx="2" fill="#ebedf0"><title>2022-11-13: 0 commits</title></rect><rect x="686" y="53" width="11" height="11" rx="2" fill="#ebedf0"><title>2022-11-14: 0 commits</title></rect><rect x="686" y="67" width="11" height="11" rx="2" fill="#ebedf0"><title>2022-11-15: 0 commits</title></rect><rect x="686" y="81" width="11" height="11" rx="2" fill="#ebedf0"><title>2022-11-16: 0 commits</title></rect><rect x="686" y="95" width="11" height="11" rx="2" fill="#ebedf0"><title>2022-11-17: 0 commits</title></rect><rect x="686" y="109" width="11" height="11" rx="2" fill="#ebedf0"><title>2022-11-18: 0 commits</title></rect><rect x="686" y="123" width="11" height="11" rx="2" fill="#ebedf0"><title>2022-11-19: 0 commits</title></rect><rect x="700" y="39" width="11" height="11" rx="2" fill="#ebedf0"><title>2022-11-20: 0 commits</title></rect><rect x="700" y="53" width="11" height="11" rx="2" fill="#ebedf0"><title>2022-11-21: 0 commits</title></rect><rect x="700" y="67" width="11" height="11" rx="2" fill="#ebedf0"><title>2022-11-22: 0 commits</title></rect><rect x="700" y="81" width="11" height="11" rx="2" fill="#ebedf0"><title>2022-11-23: 0 commits</title></rect><rect x="700" y="95" width="11" height="11" rx="2" fill="#ebedf0"><title>2022-11-24: 0 commits</title></rect><rect x="700" y="109" width="11" height="11" rx="2" fill="#ebedf0"><title>2022-11-25: 0 commits</title></rect><rect x="700" y="123" width="11" height="11" rx="2" fill="#ebedf0"><title>2022-11-26: 0 commits</title></rect><rect x="714" y="39" width="11" height="11" rx="2" fill="#ebedf0"><title>2022-11-27: 0 commits</title></rect><rect x="714" y="53" width="11" height="11" rx="2" fill="#ebedf0"><title>2022-11-28: 0 commits</title></rect><rect x="714" y="67" width="11" height="11" rx="2" fill="#ebedf0"><title>2022-11-29: 0 commits</title></rect><rect x="714" y="81" width="11" height="11" rx="2" fill="#ebedf0"><title>2022-11-30: 0 commits</title></rect><rect x="714" y="95" width="11" height="11" rx="2" fill="#ebedf0"><title>2022-12-01: 0 commits</title></rect><rect x="714" y="109" width="11" height="11" rx="2" fill="#ebedf0"><title>2022-12-02: 0 commits</title></rect><rect x="714" y="123" width="11" height="11" rx="2" fill="#ebedf0"><title>2022-12-03: 0 commits</title></rect><rect x="728" y="39" width="11" height="11" rx="2" fill="#ebedf0"><title>2022-12-04: 0 commits</title></rect><rect x="728" y="53" width="11" height="11" rx="2" fill="#ebedf0"><title>2022-12-05: 0 commits</title></rect><rect x="728" y="67" width="11" height="11" rx="2" fill="#ebedf0"><title>2022-12-06: 0 commits</title></rect><rect x="728" y="81" width="11" height="11" rx="2" fill="#ebedf0"><title>2022-12-07: 0 commits</title></rect><rect x="728" y="95" width="11" height="11" rx="2" fill="#ebedf0"><title>2022-12-08: 0 commits</title></rect><rect x="728" y="109" width="11" height="11" rx="2" fill="#ebedf0"><title>2022-12-09: 0 commits</title></rect><rect x="728" y="123" width="11" height="11" rx="2" fill="#ebedf0"><title>2022-12-10: 0 commits</title></rect><rect x="742" y="39" width="11" height="11" rx="2" fill="#ebedf0"><title>2022-12-11: 0 commits</title></rect><rect x="742" y="53" width="11" height="11" rx="2" fill="#ebedf0"><title>2022-12-12: 0 commits</title></rect><rect x="742" y="67" width="11" height="11" rx="2" fill="#ebedf0"><title>2022-12-13: 0 commits</title></rect><rect x="742" y="81" width="11" height="11" rx="2" fill="#ebedf0"><title>2022-12-14: 0 commits</title></rect><rect x="742" y="95" width="11" height="11" rx="2" fill="#ebedf0"><title>2022-12-15: 0 commits</title></rect><rect x="742" y="109" width="11" height="11" rx="2" fill="#ebedf0"><title>2022-12-16: 0 commits</title></rect><rect x="742" y="123" width="11" height="11" rx="2" fill="#ebedf0"><title>2022-12-17: 0 commits</title></rect><rect x="756" y="39" width="11" height="11" rx="2" fill="#ebedf0"><title>2022-12-18: 0 commits</title></rect><rect x="756" y="53" width="11" height="11" rx="2" fill="#ebedf0"><title>2022-12-19: 0 commits</title></rect><rect x="756" y="67" width="11" height="11" rx="2" fill="#ebedf0"><title>2022-12-20: 0 commits</title></rect><rect x="756" y="81" width="11" height="11" rx="2" fill="#ebedf0"><title>2022-12-21: 0 commits</title></rect><rect x="756" y="95" width="11" height="11" rx="2" fill="#ebedf0"><title>2022-12-22: 0 commits</title></rect><rect x="756" y="109" width="11" height="11" rx="2" fill="#ebedf0"><title>2022-12-23: 0 commits</title></rect><rect x="756" y="123" width="11" height="11" rx="2" fill="#ebedf0"><title>2022-12-24: 0 commits</title></rect><rect x="770" y="39" width="11" height="11" rx="2" fill="#ebedf0"><title>2022-12-25: 0 commits</title></rect><rect x="770" y="53" width="11" height="11" rx="2" fill="#ebedf0"><title>2022-12-26: 0 commits</title></rect><rect x="770" y="67" width="11" height="11" rx="2" fill="#ebedf0"><title>2022-12-27: 0 commits</title></rect><rect x="770" y="81" width="11" height="11" rx="2" fill="#ebedf0"><title>2022-12-28: 0 commits</title></rect><rect x="770" y="95" width="11" height="11" rx="2" fill="#ebedf0"><title>2022-12-29: 0 commits</title></rect><rect x="770" y="109" width="11" height="11" rx="2" fill="#ebedf0"><title>2022-12-30: 0 commits</title></rect><rect x="770" y="123" width="11" height="11" rx="2" fill="#ebedf0"><title>2022-12-31: 0 commits</title></rect><text x="42" y="155" font-size="11" font-family="Arial,sans-serif" fill="#57606a">Commits only · issues, PRs and reviews excluded</text></svg>